<mxfile host="Electron" agent="Mozilla/5.0 (Windows NT 10.0; Win64; x64) AppleWebKit/537.36 (KHTML, like Gecko) draw.io/26.1.1 Chrome/132.0.6834.210 Electron/34.3.3 Safari/537.36" version="26.1.1">
  <diagram name="Página-1" id="cM0iddK55C2CbHH1W6h8">
    <mxGraphModel dx="1299" dy="1767" grid="1" gridSize="10" guides="1" tooltips="1" connect="1" arrows="1" fold="1" page="1" pageScale="1" pageWidth="827" pageHeight="1169" math="0" shadow="0">
      <root>
        <mxCell id="0" />
        <mxCell id="1" parent="0" />
        <mxCell id="0cmpNM80i6D8IDn_WZw0-26" style="edgeStyle=orthogonalEdgeStyle;rounded=0;orthogonalLoop=1;jettySize=auto;html=1;exitX=1;exitY=0.75;exitDx=0;exitDy=0;entryX=0;entryY=0.75;entryDx=0;entryDy=0;" edge="1" parent="1" source="0cmpNM80i6D8IDn_WZw0-1" target="0cmpNM80i6D8IDn_WZw0-5">
          <mxGeometry relative="1" as="geometry" />
        </mxCell>
        <mxCell id="0cmpNM80i6D8IDn_WZw0-27" value="2) Se um pod/job está em execução&lt;div&gt;Pode ser enviado um comando&amp;nbsp;&lt;/div&gt;&lt;div&gt;de encerramento&lt;/div&gt;" style="edgeLabel;html=1;align=center;verticalAlign=middle;resizable=0;points=[];" vertex="1" connectable="0" parent="0cmpNM80i6D8IDn_WZw0-26">
          <mxGeometry x="-0.168" y="-1" relative="1" as="geometry">
            <mxPoint x="19" y="8" as="offset" />
          </mxGeometry>
        </mxCell>
        <mxCell id="0cmpNM80i6D8IDn_WZw0-1" value="big-workflow-estatico" style="rounded=1;whiteSpace=wrap;html=1;" vertex="1" parent="1">
          <mxGeometry x="80" y="100" width="130" height="70" as="geometry" />
        </mxCell>
        <mxCell id="0cmpNM80i6D8IDn_WZw0-2" value="- Adicionar botão que abre modal de controle de execução" style="text;html=1;align=center;verticalAlign=middle;whiteSpace=wrap;rounded=0;" vertex="1" parent="1">
          <mxGeometry x="25" y="190" width="230" height="30" as="geometry" />
        </mxCell>
        <mxCell id="0cmpNM80i6D8IDn_WZw0-3" value="- Ao abrir o modal, usar informação de pods em uso proveniente de um dos endpoints de atualização&amp;nbsp;&lt;div&gt;&lt;br&gt;&lt;/div&gt;" style="text;html=1;align=center;verticalAlign=middle;whiteSpace=wrap;rounded=0;" vertex="1" parent="1">
          <mxGeometry x="25" y="270" width="230" height="50" as="geometry" />
        </mxCell>
        <mxCell id="0cmpNM80i6D8IDn_WZw0-4" value="- Adicionar modal de controle de execuções" style="text;html=1;align=center;verticalAlign=middle;whiteSpace=wrap;rounded=0;" vertex="1" parent="1">
          <mxGeometry x="25" y="230" width="230" height="30" as="geometry" />
        </mxCell>
        <mxCell id="0cmpNM80i6D8IDn_WZw0-8" value="1) Obter informação de&amp;nbsp;&lt;div&gt;pods/jobs/namespaces em execução&lt;/div&gt;" style="edgeStyle=orthogonalEdgeStyle;rounded=0;orthogonalLoop=1;jettySize=auto;html=1;exitX=0;exitY=0.25;exitDx=0;exitDy=0;" edge="1" parent="1" source="0cmpNM80i6D8IDn_WZw0-5">
          <mxGeometry x="0.068" y="-15" relative="1" as="geometry">
            <mxPoint x="210" y="125" as="targetPoint" />
            <Array as="points">
              <mxPoint x="460" y="125" />
            </Array>
            <mxPoint x="1" as="offset" />
          </mxGeometry>
        </mxCell>
        <mxCell id="0cmpNM80i6D8IDn_WZw0-9" value="&lt;span style=&quot;color: rgba(0, 0, 0, 0); font-family: monospace; font-size: 0px; text-align: start; background-color: rgb(251, 251, 251);&quot;&gt;%3CmxGraphModel%3E%3Croot%3E%3CmxCell%20id%3D%220%22%2F%3E%3CmxCell%20id%3D%221%22%20parent%3D%220%22%2F%3E%3CmxCell%20id%3D%222%22%20value%3D%22Obter%20informa%C3%A7%C3%A3o%20dos%20pods%26lt%3Bdiv%26gt%3Bem%20execu%C3%A7%C3%A3o%26lt%3B%2Fdiv%26gt%3B%22%20style%3D%22edgeLabel%3Bhtml%3D1%3Balign%3Dcenter%3BverticalAlign%3Dmiddle%3Bresizable%3D0%3Bpoints%3D%5B%5D%3B%22%20vertex%3D%221%22%20connectable%3D%220%22%20parent%3D%221%22%3E%3CmxGeometry%20x%3D%22312%22%20y%3D%22119%22%20as%3D%22geometry%22%2F%3E%3C%2FmxCell%3E%3C%2Froot%3E%3C%2FmxGraphModel%3E&lt;/span&gt;" style="edgeLabel;html=1;align=center;verticalAlign=middle;resizable=0;points=[];" vertex="1" connectable="0" parent="0cmpNM80i6D8IDn_WZw0-8">
          <mxGeometry x="0.0273" y="2" relative="1" as="geometry">
            <mxPoint as="offset" />
          </mxGeometry>
        </mxCell>
        <mxCell id="0cmpNM80i6D8IDn_WZw0-10" value="&lt;span style=&quot;color: rgba(0, 0, 0, 0); font-family: monospace; font-size: 0px; text-align: start; background-color: rgb(251, 251, 251);&quot;&gt;%3CmxGraphModel%3E%3Croot%3E%3CmxCell%20id%3D%220%22%2F%3E%3CmxCell%20id%3D%221%22%20parent%3D%220%22%2F%3E%3CmxCell%20id%3D%222%22%20value%3D%22Obter%20informa%C3%A7%C3%A3o%20dos%20pods%26lt%3Bdiv%26gt%3Bem%20execu%C3%A7%C3%A3o%26lt%3B%2Fdiv%26gt%3B%22%20style%3D%22edgeLabel%3Bhtml%3D1%3Balign%3Dcenter%3BverticalAlign%3Dmiddle%3Bresizable%3D0%3Bpoints%3D%5B%5D%3B%22%20vertex%3D%221%22%20connectable%3D%220%22%20parent%3D%221%22%3E%3CmxGeometry%20x%3D%22312%22%20y%3D%22119%22%20as%3D%22geometry%22%2F%3E%3C%2FmxCell%3E%3C%2Froot%3E%3C%2FmxGraphModel%3E&lt;/span&gt;" style="edgeLabel;html=1;align=center;verticalAlign=middle;resizable=0;points=[];" vertex="1" connectable="0" parent="0cmpNM80i6D8IDn_WZw0-8">
          <mxGeometry x="0.0182" relative="1" as="geometry">
            <mxPoint as="offset" />
          </mxGeometry>
        </mxCell>
        <mxCell id="0cmpNM80i6D8IDn_WZw0-31" style="edgeStyle=orthogonalEdgeStyle;rounded=0;orthogonalLoop=1;jettySize=auto;html=1;entryX=0;entryY=0.5;entryDx=0;entryDy=0;" edge="1" parent="1" source="0cmpNM80i6D8IDn_WZw0-5" target="0cmpNM80i6D8IDn_WZw0-30">
          <mxGeometry relative="1" as="geometry">
            <Array as="points">
              <mxPoint x="680" y="135" />
              <mxPoint x="680" y="210" />
            </Array>
          </mxGeometry>
        </mxCell>
        <mxCell id="0cmpNM80i6D8IDn_WZw0-39" value="Enviada a requisição para o sistema de&amp;nbsp;&lt;div&gt;agendamento para o&amp;nbsp;&lt;/div&gt;&lt;div&gt;WOLF continuar agnóstico&lt;/div&gt;" style="edgeLabel;html=1;align=center;verticalAlign=middle;resizable=0;points=[];" vertex="1" connectable="0" parent="0cmpNM80i6D8IDn_WZw0-31">
          <mxGeometry x="0.2293" y="-1" relative="1" as="geometry">
            <mxPoint x="31" y="-11" as="offset" />
          </mxGeometry>
        </mxCell>
        <mxCell id="0cmpNM80i6D8IDn_WZw0-5" value="big-wolf" style="rounded=1;whiteSpace=wrap;html=1;" vertex="1" parent="1">
          <mxGeometry x="460" y="100" width="130" height="70" as="geometry" />
        </mxCell>
        <mxCell id="0cmpNM80i6D8IDn_WZw0-15" style="edgeStyle=orthogonalEdgeStyle;rounded=0;orthogonalLoop=1;jettySize=auto;html=1;entryX=1;entryY=0.5;entryDx=0;entryDy=0;exitX=0;exitY=0.5;exitDx=0;exitDy=0;" edge="1" parent="1" source="0cmpNM80i6D8IDn_WZw0-23" target="0cmpNM80i6D8IDn_WZw0-5">
          <mxGeometry relative="1" as="geometry">
            <Array as="points">
              <mxPoint x="750" y="50" />
              <mxPoint x="680" y="50" />
              <mxPoint x="680" y="140" />
            </Array>
          </mxGeometry>
        </mxCell>
        <mxCell id="0cmpNM80i6D8IDn_WZw0-16" value="&lt;span style=&quot;color: rgba(0, 0, 0, 0); font-family: monospace; font-size: 0px; text-align: start; background-color: rgb(251, 251, 251);&quot;&gt;%3CmxGraphModel%3E%3Croot%3E%3CmxCell%20id%3D%220%22%2F%3E%3CmxCell%20id%3D%221%22%20parent%3D%220%22%2F%3E%3CmxCell%20id%3D%222%22%20value%3D%22Obter%20informa%C3%A7%C3%A3o%20de%26amp%3Bnbsp%3B%26lt%3Bdiv%26gt%3Bpods%2Fjobs%2Fnamespaces%20em%20execu%C3%A7%C3%A3o%26lt%3B%2Fdiv%26gt%3B%22%20style%3D%22edgeStyle%3DorthogonalEdgeStyle%3Brounded%3D0%3BorthogonalLoop%3D1%3BjettySize%3Dauto%3Bhtml%3D1%3BexitX%3D0%3BexitY%3D0.25%3BexitDx%3D0%3BexitDy%3D0%3B%22%20edge%3D%221%22%20parent%3D%221%22%3E%3CmxGeometry%20relative%3D%221%22%20as%3D%22geometry%22%3E%3CmxPoint%20x%3D%22460%22%20y%3D%22125%22%20as%3D%22sourcePoint%22%2F%3E%3CmxPoint%20x%3D%22210%22%20y%3D%22125%22%20as%3D%22targetPoint%22%2F%3E%3CArray%20as%3D%22points%22%3E%3CmxPoint%20x%3D%22210%22%20y%3D%22125%22%2F%3E%3C%2FArray%3E%3C%2FmxGeometry%3E%3C%2FmxCell%3E%3CmxCell%20id%3D%223%22%20value%3D%22%26lt%3Bspan%20style%3D%26quot%3Bcolor%3A%20rgba(0%2C%200%2C%200%2C%200)%3B%20font-family%3A%20monospace%3B%20font-size%3A%200px%3B%20text-align%3A%20start%3B%20background-color%3A%20rgb(251%2C%20251%2C%20251)%3B%26quot%3B%26gt%3B%253CmxGraphModel%253E%253Croot%253E%253CmxCell%2520id%253D%25220%2522%252F%253E%253CmxCell%2520id%253D%25221%2522%2520parent%253D%25220%2522%252F%253E%253CmxCell%2520id%253D%25222%2522%2520value%253D%2522Obter%2520informa%25C3%25A7%25C3%25A3o%2520dos%2520pods%2526lt%253Bdiv%2526gt%253Bem%2520execu%25C3%25A7%25C3%25A3o%2526lt%253B%252Fdiv%2526gt%253B%2522%2520style%253D%2522edgeLabel%253Bhtml%253D1%253Balign%253Dcenter%253BverticalAlign%253Dmiddle%253Bresizable%253D0%253Bpoints%253D%255B%255D%253B%2522%2520vertex%253D%25221%2522%2520connectable%253D%25220%2522%2520parent%253D%25221%2522%253E%253CmxGeometry%2520x%253D%2522312%2522%2520y%253D%2522119%2522%2520as%253D%2522geometry%2522%252F%253E%253C%252FmxCell%253E%253C%252Froot%253E%253C%252FmxGraphModel%253E%26lt%3B%2Fspan%26gt%3B%22%20style%3D%22edgeLabel%3Bhtml%3D1%3Balign%3Dcenter%3BverticalAlign%3Dmiddle%3Bresizable%3D0%3Bpoints%3D%5B%5D%3B%22%20vertex%3D%221%22%20connectable%3D%220%22%20parent%3D%222%22%3E%3CmxGeometry%20x%3D%220.0273%22%20y%3D%222%22%20relative%3D%221%22%20as%3D%22geometry%22%3E%3CmxPoint%20as%3D%22offset%22%2F%3E%3C%2FmxGeometry%3E%3C%2FmxCell%3E%3CmxCell%20id%3D%224%22%20value%3D%22%26lt%3Bspan%20style%3D%26quot%3Bcolor%3A%20rgba(0%2C%200%2C%200%2C%200)%3B%20font-family%3A%20monospace%3B%20font-size%3A%200px%3B%20text-align%3A%20start%3B%20background-color%3A%20rgb(251%2C%20251%2C%20251)%3B%26quot%3B%26gt%3B%253CmxGraphModel%253E%253Croot%253E%253CmxCell%2520id%253D%25220%2522%252F%253E%253CmxCell%2520id%253D%25221%2522%2520parent%253D%25220%2522%252F%253E%253CmxCell%2520id%253D%25222%2522%2520value%253D%2522Obter%2520informa%25C3%25A7%25C3%25A3o%2520dos%2520pods%2526lt%253Bdiv%2526gt%253Bem%2520execu%25C3%25A7%25C3%25A3o%2526lt%253B%252Fdiv%2526gt%253B%2522%2520style%253D%2522edgeLabel%253Bhtml%253D1%253Balign%253Dcenter%253BverticalAlign%253Dmiddle%253Bresizable%253D0%253Bpoints%253D%255B%255D%253B%2522%2520vertex%253D%25221%2522%2520connectable%253D%25220%2522%2520parent%253D%25221%2522%253E%253CmxGeometry%2520x%253D%2522312%2522%2520y%253D%2522119%2522%2520as%253D%2522geometry%2522%252F%253E%253C%252FmxCell%253E%253C%252Froot%253E%253C%252FmxGraphModel%253E%26lt%3B%2Fspan%26gt%3B%22%20style%3D%22edgeLabel%3Bhtml%3D1%3Balign%3Dcenter%3BverticalAlign%3Dmiddle%3Bresizable%3D0%3Bpoints%3D%5B%5D%3B%22%20vertex%3D%221%22%20connectable%3D%220%22%20parent%3D%222%22%3E%3CmxGeometry%20x%3D%220.0182%22%20relative%3D%221%22%20as%3D%22geometry%22%3E%3CmxPoint%20as%3D%22offset%22%2F%3E%3C%2FmxGeometry%3E%3C%2FmxCell%3E%3C%2Froot%3E%3C%2FmxGraphModel%3E&lt;/span&gt;" style="edgeLabel;html=1;align=center;verticalAlign=middle;resizable=0;points=[];" vertex="1" connectable="0" parent="0cmpNM80i6D8IDn_WZw0-15">
          <mxGeometry x="-0.0727" y="-3" relative="1" as="geometry">
            <mxPoint as="offset" />
          </mxGeometry>
        </mxCell>
        <mxCell id="0cmpNM80i6D8IDn_WZw0-17" value="1) Obter informação de&amp;nbsp;&lt;div&gt;pods/jobs/namespaces em execução&lt;/div&gt;" style="edgeLabel;html=1;align=center;verticalAlign=middle;resizable=0;points=[];" vertex="1" connectable="0" parent="0cmpNM80i6D8IDn_WZw0-15">
          <mxGeometry x="-0.2909" y="3" relative="1" as="geometry">
            <mxPoint x="29" y="57" as="offset" />
          </mxGeometry>
        </mxCell>
        <mxCell id="0cmpNM80i6D8IDn_WZw0-25" style="edgeStyle=orthogonalEdgeStyle;rounded=0;orthogonalLoop=1;jettySize=auto;html=1;" edge="1" parent="1" source="0cmpNM80i6D8IDn_WZw0-13">
          <mxGeometry relative="1" as="geometry">
            <mxPoint x="830" y="50" as="targetPoint" />
          </mxGeometry>
        </mxCell>
        <mxCell id="0cmpNM80i6D8IDn_WZw0-13" value="big-logs-operator" style="rounded=1;whiteSpace=wrap;html=1;" vertex="1" parent="1">
          <mxGeometry x="880" y="20" width="120" height="60" as="geometry" />
        </mxCell>
        <mxCell id="0cmpNM80i6D8IDn_WZw0-20" value="Melhorias&lt;div&gt;-&amp;gt; Melhorar para casos em que o pods tem o nome grande e não funciona(ajustar regex)&lt;/div&gt;&lt;div&gt;-&amp;gt; Melhorar para fazer consulta por por últimas linhas/remover validação de tempo&lt;/div&gt;" style="text;html=1;align=center;verticalAlign=middle;whiteSpace=wrap;rounded=0;" vertex="1" parent="1">
          <mxGeometry x="1000" y="30" width="210" height="30" as="geometry" />
        </mxCell>
        <mxCell id="0cmpNM80i6D8IDn_WZw0-21" value="- Ter um refresh button no modal" style="text;html=1;align=center;verticalAlign=middle;whiteSpace=wrap;rounded=0;" vertex="1" parent="1">
          <mxGeometry x="25" y="310" width="230" height="30" as="geometry" />
        </mxCell>
        <mxCell id="0cmpNM80i6D8IDn_WZw0-22" value="1) Na consulta a mudança é mínima, fazendo uso do endpoint do big-status-batch" style="text;html=1;align=center;verticalAlign=middle;whiteSpace=wrap;rounded=0;" vertex="1" parent="1">
          <mxGeometry x="400" y="190" width="260" height="30" as="geometry" />
        </mxCell>
        <mxCell id="0cmpNM80i6D8IDn_WZw0-23" value="big-status-batch" style="rounded=1;whiteSpace=wrap;html=1;" vertex="1" parent="1">
          <mxGeometry x="707" y="20" width="120" height="60" as="geometry" />
        </mxCell>
        <mxCell id="0cmpNM80i6D8IDn_WZw0-28" value="2) Criação da IIB para interrupção da execução&lt;div&gt;&lt;span style=&quot;background-color: transparent; color: light-dark(rgb(0, 0, 0), rgb(255, 255, 255));&quot;&gt;- Validar papel(BIGEVENT)&lt;/span&gt;&lt;div&gt;- Salvar interrupção no banco de dados&lt;/div&gt;&lt;div&gt;&lt;span style=&quot;background-color: transparent; color: light-dark(rgb(0, 0, 0), rgb(255, 255, 255));&quot;&gt;- Encaminha interrupção para o agendador responsável&lt;/span&gt;&lt;/div&gt;&lt;/div&gt;" style="text;html=1;align=center;verticalAlign=middle;whiteSpace=wrap;rounded=0;" vertex="1" parent="1">
          <mxGeometry x="400" y="240" width="260" height="30" as="geometry" />
        </mxCell>
        <mxCell id="0cmpNM80i6D8IDn_WZw0-29" value="&lt;b&gt;-&amp;gt; Mandar flag novo cluster&amp;nbsp;&lt;/b&gt;" style="text;html=1;align=center;verticalAlign=middle;whiteSpace=wrap;rounded=0;" vertex="1" parent="1">
          <mxGeometry x="672" y="-20" width="190" height="30" as="geometry" />
        </mxCell>
        <mxCell id="0cmpNM80i6D8IDn_WZw0-33" style="edgeStyle=orthogonalEdgeStyle;rounded=0;orthogonalLoop=1;jettySize=auto;html=1;entryX=0;entryY=0.5;entryDx=0;entryDy=0;" edge="1" parent="1" source="0cmpNM80i6D8IDn_WZw0-30" target="0cmpNM80i6D8IDn_WZw0-32">
          <mxGeometry relative="1" as="geometry" />
        </mxCell>
        <mxCell id="0cmpNM80i6D8IDn_WZw0-36" value="Chamada do endpoint&amp;nbsp;&lt;div&gt;fornecido pela equipe de&amp;nbsp;&lt;/div&gt;&lt;div&gt;Motores&lt;/div&gt;" style="edgeLabel;html=1;align=center;verticalAlign=middle;resizable=0;points=[];" vertex="1" connectable="0" parent="0cmpNM80i6D8IDn_WZw0-33">
          <mxGeometry x="-0.2222" y="-3" relative="1" as="geometry">
            <mxPoint x="18" y="-3" as="offset" />
          </mxGeometry>
        </mxCell>
        <mxCell id="0cmpNM80i6D8IDn_WZw0-30" value="big-agendador-ctm-api" style="rounded=1;whiteSpace=wrap;html=1;" vertex="1" parent="1">
          <mxGeometry x="720" y="180" width="150" height="60" as="geometry" />
        </mxCell>
        <mxCell id="0cmpNM80i6D8IDn_WZw0-32" value="big-agente-batch-operator" style="rounded=1;whiteSpace=wrap;html=1;" vertex="1" parent="1">
          <mxGeometry x="1030" y="180" width="180" height="60" as="geometry" />
        </mxCell>
        <mxCell id="0cmpNM80i6D8IDn_WZw0-37" value="- Pensar em formato da mensagem genéria&amp;nbsp;&lt;div&gt;- Ver mensagem de agendamento de exemplo&lt;/div&gt;" style="text;html=1;align=center;verticalAlign=middle;whiteSpace=wrap;rounded=0;" vertex="1" parent="1">
          <mxGeometry x="700" y="250" width="180" height="60" as="geometry" />
        </mxCell>
        <mxCell id="0cmpNM80i6D8IDn_WZw0-43" value="&lt;div&gt;&lt;b&gt;Alterações na Consulta&lt;/b&gt;&lt;/div&gt;-&amp;gt; Alterar big-logs-operator para trazer informações necessárias&lt;div&gt;-&amp;gt; Alterar big-status-batch-api para replicar resposta do big-logs-operator e adicionar flag de novo cluster de execução&lt;/div&gt;&lt;div&gt;-&amp;gt; Alterar WOLF para redirecionar para nova consulta ao big-status-batch -&amp;gt; Fazer chamada para cada job de forma concorrente&lt;/div&gt;&lt;div&gt;-&amp;gt; Melhorar paa chamar código do fluxo e código do job na consulta?&lt;/div&gt;&lt;div&gt;&lt;br&gt;&lt;/div&gt;&lt;div&gt;&lt;b&gt;Criações para a interrupção&lt;/b&gt;&lt;/div&gt;&lt;div&gt;&lt;b&gt;-&amp;gt; &lt;/b&gt;Criação do endpoint de interrupção no agendador que chama o agente-batch operator&lt;/div&gt;&lt;div&gt;-&amp;gt; Criação da operação de interrupção da execução de jobs no WOLF&lt;/div&gt;&lt;div&gt;&lt;br&gt;&lt;/div&gt;&lt;div&gt;&lt;b&gt;Frontend&lt;/b&gt;&lt;/div&gt;&lt;div&gt;-&amp;gt; Botão de abertura do modal&lt;/div&gt;&lt;div&gt;-&amp;gt; Modal de interrupção com instruções claras&lt;/div&gt;&lt;div&gt;-&amp;gt; Uso dos novos endpoints de status&lt;/div&gt;&lt;div&gt;-&amp;gt; Chamada da operação big-wolf&lt;/div&gt;&lt;div&gt;-&amp;gt; Melhorar para chamar código do Fluxo e Código do job na consulta?&lt;/div&gt;" style="text;html=1;align=left;verticalAlign=middle;whiteSpace=wrap;rounded=0;" vertex="1" parent="1">
          <mxGeometry x="290" y="300" width="350" height="330" as="geometry" />
        </mxCell>
      </root>
    </mxGraphModel>
  </diagram>
</mxfile>
